/* XPM */
static char *_a8c640cdc164920d130811be6826804MNHLa6oHGndQ0xEI[] = {
/* columns rows colors chars-per-pixel */
"50 50 10 1 ",
"  c None",
". c #5C4D92",
"X c #DC91A8",
"o c #E9B6AD",
"O c #F6F0A2",
"+ c #B9B5CD",
"@ c #F5D9C5",
"# c #FFFBCD",
"$ c #DAE3EA",
"% c white",
/* pixels */
"                                                  ",
"                                                  ",
"                                                  ",
"                                                  ",
"             ......            ......             ",
"             ......            ......             ",
"           ..++++$$..        ..$$++++..           ",
"           ..++++$$..        ..$$++++..           ",
"           ..oooo$$............$$oooo..           ",
"           ..oooo$$............$$oooo..           ",
"           ..oo%%$$$$$$$++$$$$$$$%%oo..           ",
"           ..oo%%$$$$$++++++$$$$$%%oo..           ",
"           ..$$$$$$$$$++++++$$$$$$$$$..           ",
"           ..$$$$$$$$$$$++$$$$$$$$$$$..           ",
"           ..$$$$$$$$$++++++$$$$$$$$$..           ",
"           ..$$$$$$$$$++++++$$$$$$$$$..           ",
"         ....$$$$$$$$$$$$$$$$$$$$$$$$....         ",
"         ....$$$$$$$$$$$$$$$$$$$$$$$$....         ",
"           ..$$..$$$$$$$$$$$$$$$$..$$..           ",
"           ..$$..$$$$$$$$$$$$$$$$..$$..           ",
"         ....$$$$$$%%%%....%%%%$$$$$$....         ",
"         ....$$$$$$%%%%....%%%%$$$$$$....         ",
"           ..@@@@%%%%%%%%%%%%%%%%@@@@..           ",
"           ..@@@@%%%%%%%%%%%%%%%%@@@@..           ",
"             ....XXXXXXXXXXXXXXXX....             ",
"             ....XXXXXXXXXXXXXXXX....             ",
"         ....$$$$XXXXXXOO##XXXXXX$$$$....         ",
"         ....$$$$XXXXXXOO##XXXXXX$$$$....         ",
"       ..++$$$$$$$$%%%%OOOO%%%%$$$$$$$$++..       ",
"       ..++$$$$$$$$%%%%OOOO%%%%$$$$$$$$++..       ",
"       ..++$$$$$$%%%%%%%%%%%%%%%%$$$$$$++..       ",
"       ..++$$$$$$%%%%%%%%%%%%%%%%$$$$$$++..       ",
"         ......$$%%%%%%%%%%%%%%%%$$......         ",
"         ......$$%%%%%%%%%%%%%%%%$$......         ",
"             ..$$%%%%%%%%%%%%%%%%$$..             ",
"             ..$$%%%%%%%%%%%%%%%%$$..             ",
"             ..$$%%%%%%%%%%%%%%%%$$..             ",
"             ..$$%%%%%%%%%%%%%%%%$$..             ",
"             ..$$$$%%%%%%%%%%%%$$$$..             ",
"             ..$$$$%%%%%%%%%%%%$$$$..             ",
"             ..$$$$$$$$....$$$$$$$$..             ",
"             ..$$$$$$$$....$$$$$$$$..             ",
"             ..++++++..    ..++++++..             ",
"             ..++++++..    ..++++++..             ",
"               ......        ......               ",
"               ......        ......               ",
"                                                  ",
"                                                  ",
"                                                  ",
"                                                  "
};
