/* XPM */
static char *result[] = {
/* columns rows colors chars-per-pixel */
"50 50 6 1 ",
"  c #8F615D",
". c #B19641",
"X c #BFAA54",
"o c #EAE177",
"O c #F5F5A1",
"+ c None",
/* pixels */
"++++++++++++++++++++++++++++++++++++++++++++++++++",
"++++++++++++++++++++++++++++++++++++++++++++++++++",
"++++++++++++++++++++++++++++++++++++++++++++++++++",
"++++++++++++++++++++++++++++++++++++++++++++++++++",
"++++++++++++++++++++++++++++++++++++++++++++++++++",
"++++++++++++++++++++++++++++++++++++++++++++++++++",
"++++++++++++++++++++++++++++++++++++++++++++++++++",
"++++++++++++++++++++++++++++++++++++++++++++++++++",
"+++++++++++++++++++++++++++++++++     ++++++++++++",
"+++++++++++++++++++++++     ++++  OOO   ++++++++++",
"+++++++++++++++++++++   OOO   +  OoooOO ++++++++++",
"+++++++++++++++++++++ OOOooOO   OoX  oo  +++++++++",
"++++++++++++++++++++  OoX  oo  OOX +  oX +++++++++",
"++++++++++++++++++++ OOX +  ooXOX +++ oX +++++++++",
"++++++++++++++++++++ Oo +++ oooo +++  o  +++++++++",
"++++++++++++++++++++ Oo  +++ ooo ++  oX ++++++++++",
"++++++++++++++++++++ OOo  ++ Ooo   ooX  ++++++++++",
"++++++++++++++++++++  Oooo   OoooooXX  +++++++++++",
"+++++++++++++++++++++   oooOOOooooo   ++++++++++++",
"+++++++++++++++++++++++   oooooXXXooo   ++++++++++",
"+++++++++++++++++++++++++  OoooX   oooo ++++++++++",
"++++++++++++++++++++++++  OooXoX ++  oo  +++++++++",
"+++++++++++++++++++++++  OooX oo +++  oo +++++++++",
"++++++++++++++++++++++  OooX   Oo +++ oo +++++++++",
"+++++++++++++++++++++  OooX  + Oo  + OoX +++++++++",
"++++++++++++++++++++  OooX  ++  oo  OooX +++++++++",
"+++++++++++++++++++  OooX  ++++ OoooooX ++++++++++",
"++++++++++++++++++  OooX  +++++  ooXXX  ++++++++++",
"+++++++++++++++++  OooX  +++++++      ++++++++++++",
"++++++++++++++++  OooX  ++++++++++++++++++++++++++",
"+++++++++++++++  OooX  +++++++++++++++++++++++++++",
"++++++++++++++  OooX.  +++++++++++++++++++++++++++",
"+++++++++++++  OooX.XX  ++++++++++++++++++++++++++",
"++++++++++++  OooX. Xoo  +++++++++++++++++++++++++",
"+++++++++++  OooX.   Xoo +++++++++++++++++++++++++",
"++++++++++  OooX. ++  X  +++++++++++++++++++++++++",
"+++++++++  OooX.X  ++   ++++++++++++++++++++++++++",
"+++++++++ OooX.XXX  ++++++++++++++++++++++++++++++",
"+++++++++ OoX..Xooo  +++++++++++++++++++++++++++++",
"+++++++++  XX   XooX +++++++++++++++++++++++++++++",
"++++++++++    +  XX  +++++++++++++++++++++++++++++",
"++++++++++++++++    ++++++++++++++++++++++++++++++",
"++++++++++++++++++++++++++++++++++++++++++++++++++",
"++++++++++++++++++++++++++++++++++++++++++++++++++",
"++++++++++++++++++++++++++++++++++++++++++++++++++",
"++++++++++++++++++++++++++++++++++++++++++++++++++",
"++++++++++++++++++++++++++++++++++++++++++++++++++",
"++++++++++++++++++++++++++++++++++++++++++++++++++",
"++++++++++++++++++++++++++++++++++++++++++++++++++",
"++++++++++++++++++++++++++++++++++++++++++++++++++"
};
