/* XPM */
static char *result[] = {
/* columns rows colors chars-per-pixel */
"50 50 7 1 ",
"  c #5C4D92",
". c #C56C87",
"X c #DC91A8",
"o c #B9B5CD",
"O c #DAE3EA",
"+ c white",
"@ c None",
/* pixels */
"@@@@@@@@@@@@@@@@@@@@@@@@@@@@@@@@@@@@@@@@@@@@@@@@@@",
"@@@@@@@@@@@@@@@@@@@@@@@@@@@@@@@@@@@@@@@@@@@@@@@@@@",
"@@@@@@@@@@@@@@@@@@@@@@@@@@@@@@@@@@@@@@@@@@@@@@@@@@",
"@@@@@@@@@@@@@@@@@@@@@@@@@@@@@@@@@@@@@@@@@@@@@@@@@@",
"@@@@@@@@@@@@@@@@@@@@@@@@@@@@@@@@@@@@@@@@@@@@@@@@@@",
"@@@@@@@@@@@@@@@@@@@@@@@@@@@@@@@@@@@@@@@@@@@@@@@@@@",
"@@@@@@@@@@@@@      @@@@@@@@@@@@      @@@@@@@@@@@@@",
"@@@@@@@@@@@@@      @@@@@@@@@@@@      @@@@@@@@@@@@@",
"@@@@@@@@@@@  ooooOO  @@@@@@@@  OOoooo  @@@@@@@@@@@",
"@@@@@@@@@@@  ooooOO  @@@@@@@@  OOoooo  @@@@@@@@@@@",
"@@@@@@@@@@@  OOOOOO            OOOOOO  @@@@@@@@@@@",
"@@@@@@@@@@@  OOOOOO            OOOOOO  @@@@@@@@@@@",
"@@@@@@@@@@@  OOOOOOOOOOOooOOOOOOOOOOO  @@@@@@@@@@@",
"@@@@@@@@@@@  OOOOOOOOOooooooOOOOOOOOO  @@@@@@@@@@@",
"@@@@@@@@@@@  OOOOOOOOOooooooOOOOOOOOO  @@@@@@@@@@@",
"@@@@@@@@@@@  OOOOOOOOOOOooOOOOOOOOOOO  @@@@@@@@@@@",
"@@@@@@@@@@@  OOOOOOOOOooooooOOOOOOOOO  @@@@@@@@@@@",
"@@@@@@@@@@@  OOOOOOOOOooooooOOOOOOOOO  @@@@@@@@@@@",
"@@@@@@@@@    OOOOOOOOOOOOOOOOOOOOOOOO    @@@@@@@@@",
"@@@@@@@@@    OOOOOOOOOOOOOOOOOOOOOOOO    @@@@@@@@@",
"@@@@@@@@@@@  OOOOOOOOOOOOOOOOOOOOOOOO  @@@@@@@@@@@",
"@@@@@@@@@@@  OOOOOOOOOOOOOOOOOOOOOOOO  @@@@@@@@@@@",
"@@@@@@@@@    OOOOOOOOOOOOOOOOOOOOOOOO    @@@@@@@@@",
"@@@@@@@@@    OOOOOOOOOOOOOOOOOOOOOOOO    @@@@@@@@@",
"@@@@@@@@@@@  OOOOOOOOOOOOOOOOOOOOOOOO  @@@@@@@@@@@",
"@@@@@@@@@@@  OOOOOOOOOOOOOOOOOOOOOOOO  @@@@@@@@@@@",
"@@@@@@@@@@@@@    XXXXXXXXXXXXXXXX    @@@@@@@@@@@@@",
"@@@@@@@@@@@@@    XXXXXXXXXXXXXXXX    @@@@@@@@@@@@@",
"@@@@@@@@@    OOOOXXXXXX....XXXXXXOOOO    @@@@@@@@@",
"@@@@@@@@@    OOOOXXXXXX....XXXXXXOOOO    @@@@@@@@@",
"@@@@@@@  ooOOOOOOOOOO..OooO..OOOOOOOOOOoo  @@@@@@@",
"@@@@@@@  ooOOOOOOOOOO..OooO..OOOOOOOOOOoo  @@@@@@@",
"@@@@@@@  ooOOOOOOOOoo..oooo..ooOOOOOOOOoo  @@@@@@@",
"@@@@@@@  ooOOOOOOOOoo..oooo..ooOOOOOOOOoo  @@@@@@@",
"@@@@@@@@@      OOOOOOOOOooOOOOOOOOO      @@@@@@@@@",
"@@@@@@@@@      OOOOOOOOOooOOOOOOOOO      @@@@@@@@@",
"@@@@@@@@@@@@@  OOOOooooooooooooOOOO  @@@@@@@@@@@@@",
"@@@@@@@@@@@@@  OOOOooooooooooooOOOO  @@@@@@@@@@@@@",
"@@@@@@@@@@@@@  OOOOOOOOO++OOOOOOOOO  @@@@@@@@@@@@@",
"@@@@@@@@@@@@@  OOOOOOOO++++OOOOOOOO  @@@@@@@@@@@@@",
"@@@@@@@@@@@@@  OOOOOOOO++++OOOOOOOO  @@@@@@@@@@@@@",
"@@@@@@@@@@@@@  OOOOOOOOO++OOOOOOOOO  @@@@@@@@@@@@@",
"@@@@@@@@@@@@@  OOOOOOOO    OOOOOOOO  @@@@@@@@@@@@@",
"@@@@@@@@@@@@@  OOOOOOOO    OOOOOOOO  @@@@@@@@@@@@@",
"@@@@@@@@@@@@@  oooooo  @@@@  oooooo  @@@@@@@@@@@@@",
"@@@@@@@@@@@@@  oooooo  @@@@  oooooo  @@@@@@@@@@@@@",
"@@@@@@@@@@@@@@@      @@@@@@@@      @@@@@@@@@@@@@@@",
"@@@@@@@@@@@@@@@      @@@@@@@@      @@@@@@@@@@@@@@@",
"@@@@@@@@@@@@@@@@@@@@@@@@@@@@@@@@@@@@@@@@@@@@@@@@@@",
"@@@@@@@@@@@@@@@@@@@@@@@@@@@@@@@@@@@@@@@@@@@@@@@@@@"
};
