/* XPM */
static char *_0c12c79c89a4669c0b63e2c7badb728a8ZQ8tjl4YkNhduq[] = {
/* columns rows colors chars-per-pixel */
"50 50 9 1 ",
"  c None",
". c #5C4D92",
"X c #DC91A8",
"o c #E9B6AD",
"O c #F6F0A2",
"+ c #B9B5CD",
"@ c #F5D9C5",
"# c #DAE3EA",
"$ c white",
/* pixels */
"                                                  ",
"                                                  ",
"                                                  ",
"                                                  ",
"                                                  ",
"                                                  ",
"                     ......                       ",
"                     ......                       ",
"                   ..++++##..                     ",
"                   ..++++##..                     ",
"                 ..##oooo##....                   ",
"                 ..##oooo##....                   ",
"                 ..##oo$$#####+..                 ",
"                 ..##oo$$#####+..                 ",
"                 ..###########+..                 ",
"                 ..###########+..                 ",
"                 ..############..                 ",
"                 ..############..                 ",
"               ....############....               ",
"               ....############....               ",
"                 ..########..####..               ",
"                 ..########..####..               ",
"               ....############$$..               ",
"               ....############$$..               ",
"                 ..######@@@@$$$$..               ",
"                 ..######@@@@$$$$..               ",
"                   ..XXXXXXXXXX..                 ",
"                   ..XXXXXXXXXX..                 ",
"                 ..######XXXXXXOO                 ",
"                 ..######XXXXXXOO                 ",
"               ..++##########..OO                 ",
"               ..++##########..OO                 ",
"               ..++########$$..                   ",
"               ..++########$$..                   ",
"                 ....######$$..                   ",
"                 ....######$$..                   ",
"                   ..######$$..                   ",
"                   ..######$$..                   ",
"                   ..######$$..                   ",
"                   ..######$$..                   ",
"                  ..$########..                   ",
"                  ..$########..                   ",
"                   ..######..                     ",
"                   ..######..                     ",
"                   ..++++++..                     ",
"                   ..++++++..                     ",
"                     ......                       ",
"                     ......                       ",
"                                                  ",
"                                                  "
};
