/* XPM */
static char *result[] = {
/* columns rows colors chars-per-pixel */
"50 50 6 1 ",
"  c #8F615D",
". c #B78962",
"X c #C49A6B",
"o c #DDBA8A",
"O c #E9D0A7",
"+ c None",
/* pixels */
"++++++++++++++++++++++++++++++++++++++++++++++++++",
"++++++++++++++++++++++++++++++++++++++++++++++++++",
"++++++++++++++++++++++++++++++++++++++++++++++++++",
"++++++++++++++++++++++++++++++++++++++++++++++++++",
"++++++++++++++++++++++++++++++++++++++++++++++++++",
"++++++++++++++++++++++++++++++++++++++++++++++++++",
"++++++++++++++++++++++++++++++++++++++++++++++++++",
"++++++++++++++++++++++++++++++++++++++++++++++++++",
"++++++++++++++++++++++++++++++++++++++++++++++++++",
"++++++++++++++++++++++++++++++++++++++++++++++++++",
"+++++++++++++++                    +++++++++++++++",
"+++++++++++++++                    +++++++++++++++",
"+++++++++++    oooooooooooooooooooo    +++++++++++",
"+++++++++++    oo................oo    +++++++++++",
"+++++++++  ooooo.oooooooooooooooo.ooooo  +++++++++",
"+++++++++  oo...oooo............oo...oo  +++++++++",
"+++++++  ooo..ooo..ooooooooooooo.ooo..ooo  +++++++",
"+++++++  ooo..oooo...ooooooooo...ooo..ooo  +++++++",
"+++++++  OOooo..ooooo.........oooo..oooOO  +++++++",
"+++++++  OOooooo....ooooooooooo...oooooOO  +++++++",
"+++++++    OOOOoooo............ooooOOOO    +++++++",
"+++++++  XX OOOooooooooooooooooooooOOO ..  +++++++",
"+++++++  .X    OOOOOOOOOOOOOOOOOOOO    ..  +++++++",
"+++++++  .XX  X    OOOOOOOOOOOOOO  ..  ..  +++++++",
"+++++++  ... XXXXXX               X... ..  +++++++",
"+++++++  ... X...XXX..........XXXXX......  +++++++",
"+++++++  ..  X....X..........XXX.........  +++++++",
"+++++++  .. ......X..........XXX.........  +++++++",
"+++++++  ... .................X...... ...  +++++++",
"+++++++  ... .................X...... ...  +++++++",
"+++++++  ... ........................ ...  +++++++",
"+++++++  ... X....................... ...  +++++++",
"+++++++  ...XX...........................  +++++++",
"+++++++  ...XX...........................  +++++++",
"+++++++  ............ ............... ...  +++++++",
"+++++++  ............ ............... ...  +++++++",
"+++++++  ...........  ............... ...  +++++++",
"+++++++  ...........  X.............. ...  +++++++",
"+++++++  ............ X.............. ...  +++++++",
"+++++  XXXX....XX.... X..........XX....XXXX  +++++",
"+++++  XXXX....XX.... ...........XX....XXXX  +++++",
"+++++++XXXXXX..XX................XX..XXXXXX+++++++",
"+++++++XXXXXX..XX................XX..XXXXXX+++++++",
"++++++++++XXXXXXXXX..XX......XX..XXXXXXX++++++++++",
"++++++++++XXXXXXXXX..XX......XX..XXXXXXX++++++++++",
"+++++++++++++++++++XXXX....XXXXX++++++++++++++++++",
"+++++++++++++++++++XXXX....XXXXX++++++++++++++++++",
"++++++++++++++++++++++++++++++++++++++++++++++++++",
"++++++++++++++++++++++++++++++++++++++++++++++++++",
"++++++++++++++++++++++++++++++++++++++++++++++++++"
};
