/* XPM */
static char *result[] = {
/* columns rows colors chars-per-pixel */
"50 50 10 1 ",
"  c #8F615D",
". c #AA7859",
"X c #B19641",
"o c #BFAA54",
"O c #C49A6B",
"+ c #D5C268",
"@ c #EAE177",
"# c #DDBA8A",
"$ c #F5F5A1",
"% c None",
/* pixels */
"%%%%%%%%%%%%%%%%%%%%%%%%%%%%%%%%%%%%%%%%%%%%%%%%%%",
"%%%%%%%%%%%%%%%%%%%%%%%%%%%%%%%%%%%%%%%%%%%%%%%%%%",
"%%%%%%%%%%%%%%%%%%%%%%%%%%%%%%%%%%%%%%%%%%%%%%%%%%",
"%%%%%%%%%%%%%%%%%%%%%%%%%%%%%%%%%%%%%%%%%%%%%%%%%%",
"%%%%%%%%%%%%%%%%%%%%%%%%%%%%%%%%%%%%%%%%%%%%%%%%%%",
"%%%%%%%%%%%%%%%%%%%%%%%%%%%%%%%%%%%%%%%%%%%%%%%%%%",
"%%%%%%%%%%%%%%%%%%%%%%%%%%%%%%%%%%%%%%%%%%%%%%%%%%",
"%%%%%%%%%%%%%%%%%%%%%%%%%%%%%%%%%%%%%%%%%%%%%%%%%%",
"%%%%%%%%%%%%%%%%%%%%%%%%%%%%%%%%%%%%%%%%%%%%%%%%%%",
"%%%%%%%%%%%%%%%%%%%%%%%%%%%%%%%%%%%%%%%%%%%%%%%%%%",
"%%%%%%%%%%%%%%%%%%%%%%%%%%%%%%%%%%%%%%%%%%%%%%%%%%",
"%%%%%%%%%%%%%%%%%%%%%%%%%%%%%%%%%%%%%%%%%%%%%%%%%%",
"%%%%%%%%%%%%%%%%%%%%%%%%%%%%%%%%%%%%%%%%%%%%%%%%%%",
"%%%%%%%%%%%%%%%%%%%%%%%%%%%%%%%%%%%%%%%%%%%%%%%%%%",
"%%%%%%%%%%%%%%%%%%%%%%%%%%%%%%%%%%%%%%%%%%%%%%%%%%",
"%%%%%%%%%%%%%%%%%%%%%%%%%%%%%%%%%%%%%%%%%%%%%%%%%%",
"%%%%%%%%%%%%%%%%%%%%%%%%%%%%%%%%%%%%%%%%%%%%%%%%%%",
"%%%%%%%%%%%%%%%%%%%%%%%%%%%%%%%%%%%%%%%%%%%%%%%%%%",
"%%%%%%%%    %%%%%%%%%%%%%%%%%%%%%%%%%%    %%%%%%%%",
"%%%%%%%%    %%%%%%%%%%%%%%%%%%%%%%%%%%    %%%%%%%%",
"%%%%%%  ++++                          ++++  %%%%%%",
"%%%%%%  ++++                          ++++  %%%%%%",
"%%%%  @@@@@@OO######################OO@@@@@@  %%%%",
"%%%%  @@@@@@OO######################OO@@@@@@  %%%%",
"%%%%  @@@@OOOOOOOO##############OOOOOOOO@@@@  %%%%",
"%%%%  @@@@OOOOOOOO##############OOOOOOOO@@@@  %%%%",
"%%%%  @@@@OOOOOOOOOOOOOOOOOOOOOOOOOOOOOO@@@@  %%%%",
"%%%%  @@@@OOOOOOOOOOOOOOOOOOOOOOOOOOOOOO@@@@  %%%%",
"%%%%  @@@@OOOOOOOOOOOOOOOOOOOOOOOOOOOOOO@@@@  %%%%",
"%%%%  @@@@OOOOOOOOOOOOOOOOOOOOOOOOOOOOOO@@@@  %%%%",
"%%%%  @@@@OOOOOOOOOOOOOOOOOOOOOOOOOOOOOO@@@@  %%%%",
"%%%%  @@@@OOOOOOOOOOOOOOOOOOOOOOOOOOOOOO@@@@  %%%%",
"%%%%  $$@@@@@@@@@@@@@@@@@@@@@@@@@@@@@@@@@@$$  %%%%",
"%%%%  $$@@@@@@@@@@@@@@@@@@@@@@@@@@@@@@@@@@$$  %%%%",
"%%%%  XX$$$$$$$$$$$$$$$$$$$$$$$$$$$$$$$$$$XX  %%%%",
"%%%%  XX$$$$$$$$$$$$$$$$$$$$$$$$$$$$$$$$$$XX  %%%%",
"%%%%  ooXX             @@++             XXoo  %%%%",
"%%%%  ooXX             @@++             XXoo  %%%%",
"%%%%  oooo.............++++.............oooo  %%%%",
"%%%%  oooo.............++++.............oooo  %%%%",
"%%%%  ++oo..............................oo++  %%%%",
"%%%%  ++oo..............................oo++  %%%%",
"%%%%%%  ++++++++++++++++++++++++++++++++++  %%%%%%",
"%%%%%%  ++++++++++++++++++++++++++++++++++  %%%%%%",
"%%%%%%%%                                  %%%%%%%%",
"%%%%%%%%                                  %%%%%%%%",
"%%%%%%%%%%%%%%%%%%%%%%%%%%%%%%%%%%%%%%%%%%%%%%%%%%",
"%%%%%%%%%%%%%%%%%%%%%%%%%%%%%%%%%%%%%%%%%%%%%%%%%%",
"%%%%%%%%%%%%%%%%%%%%%%%%%%%%%%%%%%%%%%%%%%%%%%%%%%",
"%%%%%%%%%%%%%%%%%%%%%%%%%%%%%%%%%%%%%%%%%%%%%%%%%%"
};
