/* XPM */
static char *_f84a58b2f3a4ac58fbe3df9a5d2f1326THzOzlye5TLy62B[] = {
/* columns rows colors chars-per-pixel */
"50 50 26 1 ",
"  c None",
". c #1D284C",
"X c #1F2B4F",
"o c #253154",
"O c #3F6F6F",
"+ c #3F6F70",
"@ c #3F7070",
"# c #61A17F",
"$ c #63A37F",
"% c #86A46C",
"& c #ADD97A",
"* c #7A70DC",
"= c #C95485",
"- c #B576E2",
"; c #6D8BDF",
": c #6E8CDF",
"> c #79A1DF",
", c #E395AB",
"< c #D6F680",
"1 c #9BBAEB",
"2 c #9BBBEB",
"3 c #B2DAE9",
"4 c #F0C9D4",
"5 c #CDEDF8",
"6 c #E0F4FB",
"7 c #E1F4FB",
/* pixels */
"                                                  ",
"                                                  ",
"                                                  ",
"                                                  ",
"                                                  ",
"                                                  ",
"                                                  ",
"                                                  ",
"           ;;   >>X >>                            ",
"          ;33o >666.11X                           ",
"         ;3333>6666;121.*                         ",
"         X3333;66666;**66*           --           ",
"        ;*2222;6666616666*          =44-          ",
"       ;66*;22*7636616666*        -X,,44X-        ",
"       ;6666;2*76266;6666*       -44-,4,44=       ",
"       ;63667;*7626;33666X       =444-,,44=       ",
"       ;663666;362*31366.         *,-,,4-4=       ",
"       o6662333;32*2333.         =444,444*        ",
"        ;6662222;*.O3.X          =444,444X        ",
"         ;o3331&X*&@X        +    -**4,-.         ",
"           ;ooo+&&&O        +       .44X          ",
"                O&&.        +        ..           ",
"                 ++.                  +           ",
"            $$$   X                   +  $$       ",
"           $<<&$  O               <<< O $$$       ",
"           $<<$&X +    $$$        <<$<% ++$       ",
"            $<<$$.+  +++<<$        <$$%X++        ",
"             X... + +&&<<<<$          %           ",
"                  + +&&&$<<$          X           ",
"                  OX&&$$&&X           .           ",
"                  O.$$&&&O                        ",
"                   O.+++.                         ",
"             $$$   +                              ",
"     @ +    $<<<X  %             +++              ",
"      @     $<<<&+ %            +<<<+             ",
"      +     $<$&&+ %           +&<<<+             ",
"            X&&$&&O.     +O.   .&<<<.        +    ",
"             .&&$$.O    +&&&X .&&$&O       ++     ",
"              ..X. +    X&$&&OO&$&&X        +     ",
"                   +    .&&5$$$$&&+               ",
"                   .     .&&&$#XX+                ",
"                   X      .X..O                   ",
"                   .          O                   ",
"                   .          X                   ",
"                   X          X                   ",
"                                                  ",
"                                                  ",
"                                                  ",
"                                                  ",
"                                                  "
};
