/* XPM */
static char *_f56b5f7d8aa4c108ed350e3c9920bd6ZNsB3kanLxwexTB3[] = {
/* columns rows colors chars-per-pixel */
"50 50 9 1 ",
"  c None",
". c #6A495A",
"X c #8F615D",
"o c #AA7859",
"O c #B19641",
"+ c #B29742",
"@ c #BFAA54",
"# c #D5C268",
"$ c #EAE177",
/* pixels */
"                                                  ",
"                                                  ",
"                                                  ",
"                                                  ",
"        XXXXXXXXXXXXXXXXXXXXXXXXXXXXXXXXXX        ",
"        XXXXXXXXXXXXXXXXXXXXXXXXXXXXXXXXXX        ",
"      XX$$$$$$$$$$$$$$$$$$$$$$$$$$$$$$$$$$XX      ",
"      XX$$$$$$$$$$$$$$$$$$$$$$$$$$$$$$$$$$XX      ",
"    XX$$##################################$$XX    ",
"    XX$$##################################$$XX    ",
"    XX####XXXXXXXXXXXXXXXXXXXXXXXXXXXXXX####XX    ",
"    XX####XXXXXXXXXXXXXXXXXXXXXXXXXXXXXX####XX    ",
"    XX##XXXXXXooooooooooooooooooooooXXXXXX##XX    ",
"    XX##XXXXXXooooooooooooooooooooooXXXXXX##XX    ",
"    XX##XXXXXXXXooooooooooooooooooXXXXXXXX##XX    ",
"    XX##XXXXXXXXooooooooooooooooooXXXXXXXX##XX    ",
"    XX##XXXXXXXXXXXXXXXXXXXXXXXXXXXXXXXXXX##XX    ",
"    XX##XXXXXXXXXXXXXXXXXXXXXXXXXXXXXXXXXX##XX    ",
"    XX##XXXXXXXXXXXXXXXXXXXXXXXXXXXXXXXXXX##XX    ",
"    XX##XXXXXXXXXXXXXXXXXXXXXXXXXXXXXXXXXX##XX    ",
"      XX##XXXXXXXXXXXXXXXXXXXXXXXXXXXXXX##XX      ",
"      XX##XXXXXXXXXXXXXXXXXXXXXXXXXXXXXX##XX      ",
"    XXOOOO..............................OOOOXX    ",
"    XXOOOO..............................OOOOXX    ",
"    XXOO..................................OOXX    ",
"    XXOO..................................OOXX    ",
"    XXOO..................................OOXX    ",
"    XXOO..................................OOXX    ",
"    XXOO..................................OOXX    ",
"    XXOO..................................OOXX    ",
"    XXOOOO..............................OOOOXX    ",
"    XXOOOO..............................OOOOXX    ",
"    XX@@OOOOOOOOOOOOOOOOOOOOOOOOOOOOOOOOOO@@XX    ",
"    XX@@OOOOOOOOOOOOOOOOOOOOOOOOOOOOOOOOOO@@XX    ",
"    XX##@@XXXXXXXXXXXXXXOOXXXXXXXXXXXXXX@@##XX    ",
"    XX##@@XXXXXXXXXXXXXXOOXXXXXXXXXXXXXX@@##XX    ",
"    XX####oooooooooooooo##oooooooooooooo####XX    ",
"    XX####oooooooooooooo##oooooooooooooo####XX    ",
"    XX####oooooooooooooooooooooooooooooo####XX    ",
"    XX####oooooooooooooooooooooooooooooo####XX    ",
"    XX####oooooooooooooooooooooooooooooo####XX    ",
"    XX####oooooooooooooooooooooooooooooo####XX    ",
"      XX##################################XX      ",
"      XX##################################XX      ",
"        XXXXXXXXXXXXXXXXXXXXXXXXXXXXXXXXXX        ",
"        XXXXXXXXXXXXXXXXXXXXXXXXXXXXXXXXXX        ",
"                                                  ",
"                                                  ",
"                                                  ",
"                                                  "
};
