/* XPM */
static char *cccb79338db84b33aad7b3a1874698675T4FqftDWgVxamT8[] = {
/* columns rows colors chars-per-pixel */
"50 50 9 1 ",
"  c None",
". c #5C4D92",
"X c #DC91A8",
"o c #E9B6AD",
"O c #F6F0A2",
"+ c #B9B5CD",
"@ c #F5D9C5",
"# c #DAE3EA",
"$ c white",
/* pixels */
"                                                  ",
"                                                  ",
"                                                  ",
"                                                  ",
"                                                  ",
"                                                  ",
"                     ......                       ",
"                     ......                       ",
"                   ..++++##..                     ",
"                   ..++++##..                     ",
"                 ..##oooo##....                   ",
"                 ..##oooo##....                   ",
"                 ..##oo$$#####+..                 ",
"                 ..##oo$$#####+..                 ",
"                 ..###########+..                 ",
"                 ..###########+..                 ",
"                 ..############..                 ",
"                 ..############..                 ",
"               ....############....               ",
"               ....############....               ",
"                 ..########..####..               ",
"                 ..########..####..               ",
"               ....############$$..               ",
"               ....############$$..               ",
"                 ..######@@@@$$$$..               ",
"                 ..######@@@@$$$$..               ",
"                   ..XXXXXXXXXX..                 ",
"                   ..XXXXXXXXXX..                 ",
"                 ..######XXXXXXOO                 ",
"                 ..######XXXXXXOO                 ",
"               ..++##########..OO                 ",
"               ..++##########..OO                 ",
"               ..++########$$..                   ",
"               ..++########$$..                   ",
"                 ....######$$..                   ",
"                 ....######$$..                   ",
"                   ..######$$..                   ",
"                   ..######$$..                   ",
"                   ..######$$..                   ",
"                   ..######$$..                   ",
"                  ..$########..                   ",
"                  ..$########..                   ",
"                   ..######..                     ",
"                   ..######..                     ",
"                   ..++++++..                     ",
"                   ..++++++..                     ",
"                     ......                       ",
"                     ......                       ",
"                                                  ",
"                                                  "
};
